<svg xmlns="http://www.w3.org/2000/svg" xmlns:xlink="http://www.w3.org/1999/xlink" version="1.1" data-diagram-type="SEQUENCE" style="width:364px;height:281px;background:#FFFFFF;" width="364px" height="281px" viewBox="0 0 364 281" zoomAndPan="magnify" preserveAspectRatio="none" contentStyleType="text/css"><?plantuml 1.2026.8?><defs/><g font-family="sans-serif" lengthAdjust="spacing"><g><title>D.ch v. ..n h.ng</title><rect x="77.209" y="74.398" width="8" height="196.491" fill="#000" fill-opacity="0"/><line x1="80.709" y1="74.398" x2="80.709" y2="270.89" style="stroke:#000;stroke-width:0.5;stroke-dasharray:5,5;"/></g><g><title>Kho h.ng</title><rect x="279.705" y="74.398" width="8" height="196.491" fill="#000" fill-opacity="0"/><line x1="283.205" y1="74.398" x2="283.205" y2="270.89" style="stroke:#000;stroke-width:0.5;stroke-dasharray:5,5;"/></g><g><title></title><rect x="278.205" y="104.497" width="10" height="30.099" fill="#FFF" style="stroke:#181818;stroke-width:1;"/></g><text x="14.646" y="71.008" fill="#000" font-size="16" textLength="126.125" font-family="Arial">Dịch vụ đơn hàng</text><ellipse cx="80.709" cy="40" rx="12" ry="12" fill="#FFF" style="stroke:#000;stroke-width:0.5;"/><polygon points="76.709,28,82.709,23,80.709,28,82.709,33,76.709,28" fill="#000" style="stroke:#000;stroke-width:1;stroke-linejoin:miter;stroke-miterlimit:10;"/><text x="245.951" y="71.008" fill="#000" font-size="16" textLength="68.508" font-family="Arial">Kho hàng</text><path d="M265.205,20 C265.205,10 283.205,10 283.205,10 C283.205,10 301.205,10 301.205,20 L301.205,46 C301.205,56 283.205,56 283.205,56 C283.205,56 265.205,56 265.205,46 L265.205,20" style="stroke:#000;stroke-width:0.5;" fill="#FFF"/><path d="M265.205,20 C265.205,30 283.205,30 283.205,30 C283.205,30 301.205,30 301.205,20" style="stroke:#000;stroke-width:0.5;" fill="none"/><polygon points="266.205,100.497,276.205,104.497,266.205,108.497,270.205,104.497" fill="#000" style="stroke:#000;stroke-width:1;stroke-linejoin:miter;stroke-miterlimit:10;"/><line x1="80.709" y1="104.497" x2="272.205" y2="104.497" style="stroke:#000;stroke-width:1;"/><text x="87.709" y="99.53" fill="#000" font-size="14" textLength="173.496" font-family="Arial">commitReservation(orderId)</text><polygon points="91.709,130.596,81.709,134.596,91.709,138.596,87.709,134.596" fill="#000" style="stroke:#000;stroke-width:1;stroke-linejoin:miter;stroke-miterlimit:10;"/><line x1="85.709" y1="134.596" x2="277.205" y2="134.596" style="stroke:#000;stroke-width:1;stroke-dasharray:2,2;"/><text x="97.709" y="129.629" fill="#000" font-size="14" textLength="126.116" font-family="Arial">Đã chốt số hàng giữ</text><line x1="80.709" y1="164.694" x2="122.709" y2="164.694" style="stroke:#000;stroke-width:1;"/><line x1="122.709" y1="164.694" x2="122.709" y2="177.694" style="stroke:#000;stroke-width:1;"/><line x1="81.709" y1="177.694" x2="122.709" y2="177.694" style="stroke:#000;stroke-width:1;"/><polygon points="91.709,173.694,81.709,177.694,91.709,181.694,87.709,177.694" fill="#000" style="stroke:#000;stroke-width:1;stroke-linejoin:miter;stroke-miterlimit:10;"/><text x="87.709" y="159.728" fill="#000" font-size="14" textLength="153.932" font-family="Arial">Ghi nhận đơn Confirmed</text><path d="M15,190.694 L15,255.694 L348,255.694 L348,200.694 L338,190.694 L15,190.694" style="stroke:#000;stroke-width:0.5;" fill="#FFF"/><path d="M338,190.694 L338,200.694 L348,200.694 L338,190.694" style="stroke:#000;stroke-width:0.5;" fill="#FFF"/><text x="21" y="210.702" fill="#000" font-size="16" textLength="312.914" font-family="Arial">Phạm vi ví dụ giả định chốt đơn thành công.</text><text x="21" y="229.101" fill="#000" font-size="16" textLength="274.023" font-family="Arial">Thiết kế thực tế phải xử lý lỗi và bù trừ</text><text x="21" y="247.499" fill="#000" font-size="16" textLength="245.484" font-family="Arial">khi một trong hai cập nhật thất bại.</text><?plantuml-src ZPB1RjD048Rl-nIZd42YbP0G1mv8JICg16egmWkilPliAFPkM4-S0E89kD0JujOgwWb528aBiH07Lxo7tuHnt4HMqyO-s7Bo__Fz_wms6QETI2zZ26Gu7datjUhOHSx3p21faMprn4ZbPcX7C9HHKbUK7iffH2-SfLCPQpZoAAExzG5-qF3uQKqyyjxDgiGWuWgtfNAgGQwWJshIcVI48KwafMx3MdMhyqhxUy92ShxPq10sqE-cseRwDGxviNeVSECzOTwaBRWojw1stRmjixIs8F81O2e9dMqBhatiFrXCaTutKRU-5gmUojXPrHQviRTgUOyX8KaQFWguEnHsuN3xwdyIDLwt94ZVU2nRtvxonnpaNTI4sjZsa7gIP20JtOJQ-dPODTEfeqRGshC3CQWq39sZmCr5MDM6Jg_8FeS6qYAxWklpVvSMJ7vXHnsG2VI5kga4dLV6rPI1wCF1SnZ0CmXT72EzqOdsrRrzi4v-gHuAMTrbpVO17B2_p_xhB_a2GbDavmG9loigZB38VWYbQpFhY7Ban21OKwoMzgOY7_eGVQoLiBmgk5Hxw3_YaJDsNSQG8gJv4bIv58DN2vxZFQtP15SOAgFvl_oN7HsAjuQTVmd6_6Qfo7w6GENtXA4BX7cHBI7A_q1KP5_BW0i8yjz0liY-Yp5NZ8li6_5ln-iOYH1ouqbLd4hWweeWu7vuABHLK5R_3m00?></g></svg>